<svg width="24.000000" height="24.000000" viewBox="0 0 24 24" fill="none" xmlns="http://www.w3.org/2000/svg" xmlns:xlink="http://www.w3.org/1999/xlink">
	<desc>
			Created with Pixso.
	</desc>
	<defs>
		<clipPath id="clip964_17684">
			<rect id="bx:bx-phone" width="24.000000" height="24.000000" fill="white" fill-opacity="0"/>
		</clipPath>
	</defs>
	<rect id="bx:bx-phone" width="24.000000" height="24.000000" fill="#FFFFFF" fill-opacity="0"/>
	<g clip-path="url(#clip964_17684)">
		<path id="Vector" d="M18.8477 12.3517C18.7363 12.2402 18.6045 12.1517 18.459 12.0913C18.3135 12.031 18.1572 11.9999 17.999 11.9999C17.8418 11.9999 17.6855 12.031 17.54 12.0913C17.3945 12.1517 17.2627 12.2402 17.1514 12.3517L15.2383 14.2645C14.3516 14.0005 12.6963 13.4005 11.6475 12.3517C10.5996 11.303 9.99902 9.64819 9.73535 8.76135L11.6475 6.84863C11.7598 6.73718 11.8477 6.60498 11.9082 6.45935C11.9688 6.31384 12 6.15784 12 6.00012C12 5.84253 11.9688 5.68652 11.9082 5.54089C11.8477 5.39539 11.7598 5.26318 11.6475 5.15173L6.84766 0.351807C6.73633 0.240356 6.60449 0.151855 6.45898 0.0914307C6.31348 0.0311279 6.15723 0 6 0C5.8418 0 5.68555 0.0311279 5.54004 0.0914307C5.39453 0.151855 5.2627 0.240356 5.15137 0.351807L1.89648 3.6062C1.44043 4.06226 1.18359 4.6886 1.19336 5.32825C1.22168 7.03699 1.67383 12.9722 6.35156 17.6497C11.0283 22.3273 16.9639 22.7784 18.6738 22.8073L18.707 22.8073C19.3408 22.8073 19.9395 22.5576 20.3936 22.104L23.6475 18.8496C23.7598 18.7383 23.8477 18.6061 23.9082 18.4604C23.9688 18.3149 24 18.1588 24 18.0012C24 17.8436 23.9688 17.6876 23.9082 17.542C23.8477 17.3965 23.7598 17.2642 23.6475 17.1528L18.8477 12.3517ZM18.6953 20.406C17.1982 20.3809 12.0742 19.9789 8.04785 15.9517C4.00879 11.9125 3.61719 6.77063 3.59375 5.30298L6 2.89697L9.10254 6.00012L7.55078 7.55176C7.41016 7.69275 7.30664 7.86658 7.24902 8.05762C7.19238 8.24866 7.18359 8.45093 7.22461 8.64612C7.25391 8.78418 7.95801 12.0565 9.9502 14.0485C11.9424 16.0405 15.2139 16.7449 15.3525 16.7737C15.5469 16.8157 15.75 16.8079 15.9414 16.751C16.1318 16.6942 16.3066 16.5901 16.4463 16.4485L17.999 14.8969L21.1025 18L18.6953 20.406Z" fill="#8EC2F2" fill-opacity="1.000000" fill-rule="nonzero"/>
	</g>
</svg>
