<svg width="23.983398" height="23.983765" viewBox="0 0 23.9834 23.9838" fill="none" xmlns="http://www.w3.org/2000/svg" xmlns:xlink="http://www.w3.org/1999/xlink">
	<desc>
			Created with Pixso.
	</desc>
	<defs/>
	<path id="Vector" d="M11.9893 5.83887C8.58398 5.83887 5.83594 8.58691 5.83594 11.9919C5.83594 15.3969 8.58398 18.1449 11.9893 18.1449C15.3936 18.1449 18.1416 15.3969 18.1416 11.9919C18.1416 8.58691 15.3936 5.83887 11.9893 5.83887ZM11.9893 15.9908C9.78711 15.9908 7.99023 14.1938 7.99023 11.9919C7.99023 9.78992 9.78711 7.99292 11.9893 7.99292C14.1904 7.99292 15.9883 9.78992 15.9883 11.9919C15.9883 14.1938 14.1904 15.9908 11.9893 15.9908ZM18.3936 4.15283C17.5986 4.15283 16.957 4.79492 16.957 5.58984C16.957 6.38489 17.5986 7.02686 18.3936 7.02686C19.1885 7.02686 19.8311 6.38794 19.8311 5.58984C19.8311 5.40112 19.7939 5.21411 19.7217 5.03967C19.6494 4.86523 19.5439 4.70679 19.4102 4.57324C19.2773 4.43982 19.1182 4.33398 18.9443 4.26184C18.7695 4.1897 18.583 4.15271 18.3936 4.15283ZM23.9824 11.9919C23.9824 10.3359 23.998 8.69495 23.9053 7.04187C23.8115 5.12195 23.374 3.41785 21.9697 2.01392C20.5625 0.606934 18.8623 0.171875 16.9414 0.0788574C15.2861 -0.0141602 13.6445 0.000854492 11.9922 0.000854492C10.3359 0.000854492 8.69531 -0.0141602 7.04199 0.0788574C5.12207 0.171875 3.41797 0.609863 2.01367 2.01392C0.606445 3.4209 0.171875 5.12195 0.0791016 7.04187C-0.0136719 8.69788 0.000976562 10.3389 0.000976562 11.9919C0.000976562 13.6449 -0.0136719 15.2889 0.0791016 16.9419C0.171875 18.8619 0.610352 20.5659 2.01367 21.9698C3.4209 23.3768 5.12207 23.8119 7.04199 23.9049C8.69824 23.9979 10.3389 23.9829 11.9922 23.9829C13.6475 23.9829 15.2891 23.9979 16.9414 23.9049C18.8623 23.8119 20.5654 23.3739 21.9697 21.9698C23.377 20.5629 23.8115 18.8619 23.9053 16.9419C24.001 15.2889 23.9824 13.6479 23.9824 11.9919ZM21.3428 19.0659C21.124 19.6119 20.8604 20.0199 20.4365 20.4399C20.0137 20.8629 19.6094 21.1268 19.0625 21.3459C17.4854 21.9729 13.7383 21.8319 11.9893 21.8319C10.2402 21.8319 6.49023 21.9729 4.91211 21.3489C4.36621 21.1299 3.95801 20.8658 3.53809 20.4429C3.11523 20.0199 2.85059 19.6149 2.63184 19.0688C2.00781 17.4879 2.14844 13.7408 2.14844 11.9919C2.14844 10.2429 2.00781 6.49292 2.63184 4.91492C2.85059 4.3689 3.11523 3.96094 3.53809 3.54089C3.96094 3.12085 4.36621 2.85388 4.91211 2.63489C6.49023 2.01086 10.2402 2.15186 11.9893 2.15186C13.7383 2.15186 17.4883 2.01086 19.0654 2.63489C19.6123 2.85388 20.0195 3.11792 20.4395 3.54089C20.8633 3.96387 21.127 4.3689 21.3457 4.91492C21.9697 6.49292 21.8291 10.2429 21.8291 11.9919C21.8291 13.7408 21.9697 17.4879 21.3428 19.0659Z" fill="#E61F5A" fill-opacity="1.000000" fill-rule="nonzero"/>
</svg>
