<svg width="23.975586" height="17.646606" viewBox="0 0 23.9756 17.6466" fill="none" xmlns="http://www.w3.org/2000/svg" xmlns:xlink="http://www.w3.org/1999/xlink">
	<desc>
			Created with Pixso.
	</desc>
	<defs/>
	<path id="Vector" d="M23.4697 2.755C23.333 2.22205 23.0664 1.73608 22.6953 1.34583C22.3242 0.955566 21.8623 0.674683 21.3555 0.53125C19.4883 0 11.9883 0 11.9883 0C11.9883 0 4.4873 0 2.62109 0.53125C2.11426 0.674683 1.65137 0.955566 1.28027 1.34583C0.90918 1.73608 0.642578 2.22205 0.505859 2.755C0.157227 4.75671 -0.0117188 6.78833 0.000976562 8.82324C-0.0117188 10.8582 0.157227 12.8899 0.505859 14.8916C0.642578 15.4246 0.90918 15.9104 1.28027 16.3008C1.65137 16.691 2.11426 16.9719 2.62109 17.1154C4.4873 17.6466 11.9883 17.6466 11.9883 17.6466C11.9883 17.6466 19.4883 17.6466 21.3555 17.1154C21.8623 16.9719 22.3242 16.691 22.6953 16.3008C23.0664 15.9104 23.333 15.4246 23.4697 14.8916C23.8184 12.8899 23.9873 10.8582 23.9746 8.82324C23.9873 6.78833 23.8184 4.75671 23.4697 2.755ZM9.59082 12.6047L9.59082 5.04187L15.8154 8.82324L9.59082 12.6047Z" fill="#E42F08" fill-opacity="1.000000" fill-rule="nonzero"/>
</svg>
