<svg width="80.000000" height="80.002930" viewBox="0 0 80 80.0029" fill="none" xmlns="http://www.w3.org/2000/svg" xmlns:xlink="http://www.w3.org/1999/xlink">
	<desc>
			Created with Pixso.
	</desc>
	<defs>
		<filter id="filter_964_17596_dd" x="0.000000" y="0.000000" width="80.000000" height="80.002930" filterUnits="userSpaceOnUse" color-interpolation-filters="sRGB">
			<feFlood flood-opacity="0" result="BackgroundImageFix"/>
			<feColorMatrix in="SourceAlpha" type="matrix" values="0 0 0 0 0 0 0 0 0 0 0 0 0 0 0 0 0 0 127 0" result="hardAlpha"/>
			<feOffset dx="0" dy="4"/>
			<feGaussianBlur stdDeviation="1.33333"/>
			<feComposite in2="hardAlpha" operator="out" k2="-1" k3="1"/>
			<feColorMatrix type="matrix" values="0 0 0 0 0 0 0 0 0 0 0 0 0 0 0 0 0 0 0.25 0"/>
			<feBlend mode="normal" in2="BackgroundImageFix" result="effect_dropShadow_1"/>
			<feBlend mode="normal" in="SourceGraphic" in2="effect_dropShadow_1" result="shape"/>
		</filter>
	</defs>
	<g filter="url(#filter_964_17596_dd)">
		<path id="Vector" d="M59.7354 38.9946C59.3838 38.6426 58.9668 38.3633 58.5068 38.1726C58.0479 37.9819 57.5547 37.884 57.0576 37.884C56.5596 37.884 56.0674 37.9819 55.6074 38.1726C55.1475 38.3633 54.7305 38.6426 54.3789 38.9946L48.3398 45.0334C45.541 44.2 40.3164 42.3057 37.0049 38.9946C33.6943 35.6836 31.7998 30.4595 30.9668 27.6599L37.0049 21.6211C37.3574 21.2695 37.6367 20.8521 37.8271 20.3926C38.0176 19.9329 38.1162 19.4402 38.1162 18.9426C38.1162 18.4451 38.0176 17.9526 37.8271 17.4929C37.6367 17.0334 37.3574 16.616 37.0049 16.2644L21.8516 1.11084C21.5 0.758545 21.083 0.479248 20.623 0.288818C20.1631 0.0981445 19.6709 0 19.1729 0C18.6758 0 18.1836 0.0981445 17.7236 0.288818C17.2637 0.479248 16.8467 0.758545 16.4951 1.11084L6.2207 11.3848C4.78125 12.8245 3.9707 14.802 4.00098 16.8213C4.08789 22.2158 5.5166 40.9534 20.2832 55.7205C35.0508 70.4875 53.7881 71.9121 59.1865 72.0029L59.292 72.0029C61.293 72.0029 63.1836 71.2151 64.6152 69.783L74.8896 59.5088C75.2412 59.1572 75.5205 58.7397 75.7109 58.2803C75.9023 57.8206 76 57.3279 76 56.8306C76 56.333 75.9023 55.8403 75.7109 55.3806C75.5205 54.9211 75.2412 54.5037 74.8896 54.1521L59.7354 38.9946ZM59.2549 64.4224C54.5264 64.3428 38.3506 63.0737 25.6396 50.3599C12.8887 37.6082 11.6533 21.3748 11.5771 16.7417L19.1729 9.146L28.9697 18.9426L24.0713 23.8411C23.626 24.2861 23.2988 24.835 23.1191 25.4382C22.9395 26.0415 22.9121 26.6799 23.041 27.2961C23.1318 27.7317 25.3564 38.0627 31.6445 44.3516C37.9336 50.6401 48.2646 52.864 48.7002 52.9548C49.3154 53.0874 49.9551 53.0627 50.5586 52.8833C51.1631 52.7039 51.7119 52.3755 52.1553 51.9282L57.0576 47.0298L66.8545 56.8267L59.2549 64.4224Z" fill="#0D5C63" fill-opacity="1.000000" fill-rule="nonzero"/>
	</g>
</svg>
