<svg width="57.000000" height="71.000000" viewBox="0 0 57 71" fill="none" xmlns="http://www.w3.org/2000/svg" xmlns:xlink="http://www.w3.org/1999/xlink">
	<desc>
			Created with Pixso.
	</desc>
	<defs/>
	<path id="Vector" d="M28.5 42C36.4971 42 43 35.7209 43 28C43 20.2791 36.4971 14 28.5 14C20.5029 14 14 20.2791 14 28C14 35.7209 20.5029 42 28.5 42ZM28.5 21C32.498 21 35.75 24.1394 35.75 28C35.75 31.8606 32.498 35 28.5 35C24.502 35 21.25 31.8606 21.25 28C21.25 24.1394 24.502 21 28.5 21Z" fill="#FFFFFF" fill-opacity="1.000000" fill-rule="nonzero"/>
	<path id="Vector" d="M26.4336 70.3403C27.0371 70.7693 27.7588 71 28.5 71C29.2412 71 29.9629 70.7693 30.5664 70.3403C31.6494 69.5769 57.1025 51.2625 57 28.4001C57 12.741 44.2139 0 28.5 0C12.7861 0 0 12.741 0 28.3826C-0.102539 51.2625 25.3506 69.5769 26.4336 70.3403ZM28.5 7.1001C40.2881 7.1001 49.875 16.6531 49.875 28.418C49.9492 44.1731 34.2432 58.3198 28.5 62.9597C22.7607 58.3164 7.05078 44.166 7.125 28.4001C7.125 16.6531 16.7119 7.1001 28.5 7.1001Z" fill="#FFFFFF" fill-opacity="1.000000" fill-rule="nonzero"/>
</svg>
