<svg width="72.000000" height="72.000000" viewBox="0 0 72 72" fill="none" xmlns="http://www.w3.org/2000/svg" xmlns:xlink="http://www.w3.org/1999/xlink">
	<desc>
			Created with Pixso.
	</desc>
	<defs>
		<clipPath id="clip964_17616">
			<rect id="icn settings .icn-xl" width="72.000000" height="72.000000" fill="white" fill-opacity="0"/>
		</clipPath>
	</defs>
	<rect id="icn settings .icn-xl" width="72.000000" height="72.000000" fill="#FFFFFF" fill-opacity="0"/>
	<g clip-path="url(#clip964_17616)">
		<path id="Vector" d="M69.8486 2.16211C69.459 1.75903 68.9678 1.47998 68.4307 1.35791C67.8945 1.2356 67.335 1.27515 66.8193 1.47192L3.36133 25.4707C2.81445 25.6868 2.34277 26.0706 2.01074 26.5715C1.67773 27.0725 1.5 27.667 1.5 28.2756C1.5 28.8843 1.67773 29.4788 2.01074 29.9797C2.34277 30.4807 2.81445 30.8645 3.36133 31.0806L31.0527 42.5999L42.1289 71.3984C42.3369 71.9426 42.6934 72.4116 43.1553 72.7473C43.6162 73.0833 44.1621 73.2712 44.7246 73.2883C45.3076 73.2759 45.873 73.0801 46.3467 72.7266C46.8203 72.373 47.1807 71.8787 47.3789 71.3083L70.4541 5.31177C70.6504 4.78101 70.6982 4.20312 70.5908 3.64551C70.4834 3.08789 70.2266 2.57324 69.8486 2.16211ZM44.7246 61.8889L36.6768 40.8899L50.4941 26.5208L46.4268 22.291L32.4941 36.7803L12.4189 28.2905L62.9834 9.30151L44.7246 61.8889Z" fill="#0D5C63" fill-opacity="1.000000" fill-rule="nonzero"/>
	</g>
</svg>
